<?xml version="1.0" encoding="utf-8"?>
<!-- Generator: Adobe Illustrator 18.1.0, SVG Export Plug-In . SVG Version: 6.00 Build 0)  -->
<svg version="1.1" xmlns="http://www.w3.org/2000/svg" xmlns:xlink="http://www.w3.org/1999/xlink" x="0px" y="0px"
	 viewBox="0 0 402 57" enable-background="new 0 0 402 57" xml:space="preserve">
<g id="PIGGYPORK">
	<g>
		<path fill="#FFB7CB" d="M16.8,42.5v12.3H3.9V16.5h16.4c1.9,0,3.9,0.2,5.7,0.6c1.9,0.4,3.6,1.1,5,2.1c1.5,1,2.7,2.3,3.6,3.9
			c0.9,1.6,1.4,3.7,1.4,6.2c0,2.4-0.4,4.4-1.3,6.1c-0.9,1.7-2.1,3-3.5,4.1c-1.5,1-3.1,1.8-5,2.3c-1.9,0.5-3.8,0.7-5.8,0.7H16.8z
			 M16.8,26.5v6.2h2.7c1,0,1.9-0.2,2.7-0.7c0.8-0.5,1.2-1.3,1.2-2.5c0-0.6-0.1-1.1-0.3-1.5c-0.2-0.4-0.5-0.7-0.9-0.9
			s-0.8-0.4-1.3-0.5c-0.5-0.1-0.9-0.1-1.4-0.1H16.8z"/>
		<path fill="#FFB7CB" d="M38.2,16.5h13v38.3h-13V16.5z"/>
		<path fill="#FFB7CB" d="M75.1,55.8c-3,0-5.8-0.5-8.4-1.4c-2.6-0.9-4.8-2.3-6.7-4c-1.9-1.7-3.4-3.9-4.5-6.4
			c-1.1-2.5-1.6-5.3-1.6-8.3c0-3.1,0.5-5.8,1.6-8.3c1.1-2.5,2.6-4.6,4.4-6.4c1.9-1.8,4.1-3.1,6.6-4.1c2.5-1,5.2-1.4,8.1-1.4
			c3,0,5.8,0.5,8.5,1.5c2.7,1,4.9,2.3,6.6,4l-7.5,9c-0.8-0.9-1.7-1.7-2.8-2.2c-1.1-0.6-2.4-0.8-4-0.8c-1,0-2.1,0.2-3.1,0.6
			c-1,0.4-1.9,1-2.6,1.8c-0.8,0.8-1.4,1.7-1.8,2.8c-0.5,1.1-0.7,2.3-0.7,3.6c0,2.7,0.7,4.8,2.1,6.5c1.4,1.7,3.6,2.5,6.7,2.5
			c0.5,0,1.1,0,1.7-0.1c0.6-0.1,1-0.2,1.4-0.4v-2.9h-6.2V31.1h17.6v20.9c-0.9,0.5-1.9,1-3.1,1.5c-1.2,0.5-2.4,0.8-3.7,1.2
			c-1.3,0.3-2.7,0.6-4.1,0.8C78,55.7,76.6,55.8,75.1,55.8z"/>
		<path fill="#FFB7CB" d="M113.6,55.8c-3,0-5.8-0.5-8.4-1.4c-2.6-0.9-4.8-2.3-6.7-4c-1.9-1.7-3.4-3.9-4.5-6.4
			c-1.1-2.5-1.6-5.3-1.6-8.3c0-3.1,0.5-5.8,1.6-8.3c1.1-2.5,2.6-4.6,4.4-6.4c1.9-1.8,4.1-3.1,6.6-4.1c2.5-1,5.2-1.4,8.1-1.4
			c3,0,5.8,0.5,8.5,1.5c2.7,1,4.9,2.3,6.6,4l-7.5,9c-0.8-0.9-1.7-1.7-2.8-2.2c-1.1-0.6-2.4-0.8-4-0.8c-1,0-2.1,0.2-3.1,0.6
			c-1,0.4-1.9,1-2.6,1.8c-0.8,0.8-1.4,1.7-1.8,2.8c-0.5,1.1-0.7,2.3-0.7,3.6c0,2.7,0.7,4.8,2.1,6.5c1.4,1.7,3.6,2.5,6.7,2.5
			c0.5,0,1.1,0,1.7-0.1c0.6-0.1,1-0.2,1.4-0.4v-2.9h-6.2V31.1h17.6v20.9c-0.9,0.5-1.9,1-3.1,1.5c-1.2,0.5-2.4,0.8-3.7,1.2
			c-1.3,0.3-2.7,0.6-4.1,0.8C116.5,55.7,115.1,55.8,113.6,55.8z"/>
		<path fill="#FFB7CB" d="M152.5,54.8h-12.9V39.1l-14.4-22.6h15.5l6.1,11.2l5.8-11.2h15.1l-15.2,22.6V54.8z"/>
		<path fill="#282828" d="M174.4,54.8h-12.4l6.8-38.3H183c4.9,0,8.7,1,11.3,3.1c2.6,2.1,3.9,4.9,3.9,8.5c0,2.5-0.4,4.6-1.2,6.4
			c-0.8,1.8-2,3.3-3.5,4.4c-1.6,1.2-3.4,2-5.6,2.6c-2.2,0.6-4.7,0.8-7.5,0.8h-3.7L174.4,54.8z M180.3,32.9c1.7,0,3.1-0.3,4.1-0.9
			c1-0.6,1.5-1.5,1.5-2.7c0-1.2-0.4-1.9-1.2-2.4c-0.8-0.4-1.9-0.6-3.2-0.6h-1.9l-1.2,6.6H180.3z"/>
		<path fill="#282828" d="M216.3,55.8c-3.1,0-5.8-0.4-8.1-1.3s-4.3-2-5.9-3.6s-2.8-3.4-3.7-5.5c-0.8-2.1-1.2-4.5-1.2-7
			c0-3.2,0.6-6.1,1.7-8.9c1.1-2.8,2.7-5.2,4.7-7.2c2-2.1,4.5-3.7,7.3-4.9s6-1.8,9.5-1.8c3.1,0,5.8,0.4,8.2,1.3
			c2.4,0.8,4.3,2,5.9,3.6c1.6,1.6,2.8,3.4,3.7,5.5c0.8,2.1,1.2,4.5,1.2,7c0,3.2-0.5,6.1-1.6,8.9c-1.1,2.8-2.7,5.2-4.7,7.2
			c-2,2.1-4.5,3.7-7.4,4.9C223,55.2,219.8,55.8,216.3,55.8z M226.5,33.9c0-1-0.2-1.9-0.5-2.7c-0.3-0.8-0.8-1.6-1.4-2.2
			c-0.6-0.6-1.3-1.1-2.2-1.5c-0.9-0.4-1.9-0.5-3-0.5c-1.4,0-2.7,0.3-3.8,0.9c-1.1,0.6-2.1,1.4-2.9,2.4c-0.8,1-1.4,2.1-1.8,3.4
			c-0.4,1.3-0.6,2.5-0.6,3.8c0,1,0.2,1.9,0.5,2.7c0.3,0.8,0.8,1.6,1.4,2.2c0.6,0.6,1.3,1.1,2.2,1.5c0.9,0.4,1.9,0.5,3.1,0.5
			c1.4,0,2.7-0.3,3.8-0.9c1.1-0.6,2.1-1.4,2.9-2.3s1.4-2.1,1.8-3.4C226.3,36.5,226.5,35.2,226.5,33.9z"/>
		<path fill="#282828" d="M259.5,54.8l-5.2-14h-1.5l-2.4,14h-12.1l6.8-38.3h15.7c2.1,0,4,0.2,5.7,0.7c1.7,0.5,3.1,1.2,4.3,2.1
			c1.2,0.9,2.1,2,2.7,3.3c0.6,1.3,0.9,2.8,0.9,4.5c0,3.2-0.7,5.8-2.2,7.8c-1.5,2.1-3.5,3.5-6.1,4.2l7.5,15.6H259.5z M256.8,32.9
			c1.7,0,3-0.3,3.9-0.8c0.9-0.6,1.4-1.5,1.4-2.7c0-1.1-0.4-1.9-1.2-2.3c-0.8-0.4-1.8-0.6-3.2-0.6h-2.3l-1.1,6.4H256.8z"/>
		<path fill="#282828" d="M297.2,54.8l-8.4-16.1h-0.1l-2.8,16.1h-12.2l6.8-38.3h12.1L290,31.2h0.2l12.1-14.7h15.3L300.3,35
			l11.8,19.8H297.2z"/>
	</g>
</g>
<g id="Ellips_2_1_" enable-background="new    ">
	<g id="Ellips_2">
		<g>
			<ellipse cx="339.7" cy="13.8" rx="10.3" ry="10.8"/>
		</g>
	</g>
</g>
<g id="Ellips_2_kopiera_1_" enable-background="new    ">
	<g id="Ellips_2_kopiera">
		<g>
			<ellipse cx="373.3" cy="13.8" rx="10.3" ry="10.8"/>
		</g>
	</g>
</g>
<g id="Ellips_1_1_" enable-background="new    ">
	<g id="Ellips_1">
		<g>
			<ellipse fill="#FFB7CB" cx="356.5" cy="36.5" rx="44.5" ry="20.5"/>
		</g>
	</g>
</g>
<g id="_xAE__xAE_">
	<g>
		<path d="M334,37.6c0-1.2,0.2-2.4,0.7-3.5c0.5-1.1,1.1-2,1.9-2.8c0.8-0.8,1.8-1.4,2.9-1.9c1.1-0.5,2.3-0.7,3.5-0.7
			c1.2,0,2.4,0.2,3.5,0.7c1.1,0.5,2,1.1,2.9,1.9c0.8,0.8,1.4,1.7,1.9,2.8c0.5,1.1,0.7,2.3,0.7,3.5c0,1.2-0.2,2.4-0.7,3.5
			c-0.5,1.1-1.1,2-1.9,2.8c-0.8,0.8-1.8,1.4-2.9,1.9c-1.1,0.5-2.3,0.7-3.5,0.7c-1.2,0-2.4-0.2-3.5-0.7c-1.1-0.5-2.1-1.1-2.9-1.9
			c-0.8-0.8-1.5-1.7-1.9-2.8C334.2,40,334,38.8,334,37.6z M335.4,37.6c0,1,0.2,2,0.6,2.9c0.4,0.9,0.9,1.7,1.6,2.4
			c0.7,0.7,1.5,1.2,2.4,1.6c0.9,0.4,1.9,0.6,3,0.6c1.1,0,2-0.2,3-0.6c0.9-0.4,1.7-0.9,2.4-1.6c0.7-0.7,1.2-1.5,1.6-2.4
			c0.4-0.9,0.6-1.9,0.6-2.9c0-1.1-0.2-2-0.6-3c-0.4-0.9-0.9-1.7-1.6-2.4c-0.7-0.7-1.5-1.2-2.4-1.6c-0.9-0.4-1.9-0.6-3-0.6
			c-1.1,0-2,0.2-3,0.6s-1.7,0.9-2.4,1.6c-0.7,0.7-1.2,1.5-1.6,2.4C335.6,35.5,335.4,36.5,335.4,37.6z M344.6,42.6l-1.7-3.7h-0.6v3.7
			h-3.5V32.1h4.5c0.6,0,1.1,0.1,1.7,0.2c0.6,0.1,1.1,0.3,1.5,0.6s0.8,0.6,1.1,1c0.3,0.4,0.4,1,0.4,1.6c0,1.4-0.6,2.4-1.9,2.9
			l2.4,4.2H344.6z M343.2,36.4c0.3,0,0.6-0.1,0.8-0.3c0.2-0.2,0.3-0.4,0.3-0.7c0-0.2-0.1-0.4-0.3-0.5c-0.2-0.1-0.5-0.2-0.8-0.2h-1
			v1.6H343.2z"/>
		<path d="M360.5,37.6c0-1.2,0.2-2.4,0.7-3.5c0.5-1.1,1.1-2,1.9-2.8c0.8-0.8,1.8-1.4,2.9-1.9c1.1-0.5,2.3-0.7,3.5-0.7
			c1.2,0,2.4,0.2,3.5,0.7c1.1,0.5,2,1.1,2.9,1.9c0.8,0.8,1.4,1.7,1.9,2.8c0.5,1.1,0.7,2.3,0.7,3.5c0,1.2-0.2,2.4-0.7,3.5
			c-0.5,1.1-1.1,2-1.9,2.8c-0.8,0.8-1.8,1.4-2.9,1.9c-1.1,0.5-2.3,0.7-3.5,0.7c-1.2,0-2.4-0.2-3.5-0.7c-1.1-0.5-2.1-1.1-2.9-1.9
			c-0.8-0.8-1.5-1.7-1.9-2.8C360.8,40,360.5,38.8,360.5,37.6z M362,37.6c0,1,0.2,2,0.6,2.9c0.4,0.9,0.9,1.7,1.6,2.4
			c0.7,0.7,1.5,1.2,2.4,1.6c0.9,0.4,1.9,0.6,3,0.6c1.1,0,2-0.2,3-0.6c0.9-0.4,1.7-0.9,2.4-1.6c0.7-0.7,1.2-1.5,1.6-2.4
			c0.4-0.9,0.6-1.9,0.6-2.9c0-1.1-0.2-2-0.6-3c-0.4-0.9-0.9-1.7-1.6-2.4c-0.7-0.7-1.5-1.2-2.4-1.6c-0.9-0.4-1.9-0.6-3-0.6
			c-1.1,0-2,0.2-3,0.6s-1.7,0.9-2.4,1.6c-0.7,0.7-1.2,1.5-1.6,2.4C362.2,35.5,362,36.5,362,37.6z M371.1,42.6l-1.7-3.7h-0.6v3.7
			h-3.5V32.1h4.5c0.6,0,1.1,0.1,1.7,0.2c0.6,0.1,1.1,0.3,1.5,0.6s0.8,0.6,1.1,1c0.3,0.4,0.4,1,0.4,1.6c0,1.4-0.6,2.4-1.9,2.9
			l2.4,4.2H371.1z M369.8,36.4c0.3,0,0.6-0.1,0.8-0.3c0.2-0.2,0.3-0.4,0.3-0.7c0-0.2-0.1-0.4-0.3-0.5c-0.2-0.1-0.5-0.2-0.8-0.2h-1
			v1.6H369.8z"/>
	</g>
</g>
</svg>
